<svg width="32" height="32" viewBox="0 0 32 32" fill="none" xmlns="http://www.w3.org/2000/svg">
<path d="M19.9999 16C19.9999 16.7911 19.7653 17.5645 19.3258 18.2223C18.8862 18.8801 18.2615 19.3928 17.5306 19.6955C16.7997 19.9983 15.9954 20.0775 15.2195 19.9231C14.4436 19.7688 13.7309 19.3878 13.1715 18.8284C12.612 18.269 12.2311 17.5563 12.0767 16.7804C11.9224 16.0044 12.0016 15.2002 12.3044 14.4693C12.6071 13.7384 13.1198 13.1136 13.7776 12.6741C14.4354 12.2346 15.2088 12 15.9999 12C17.0597 12.0033 18.0752 12.4258 18.8247 13.1752C19.5741 13.9246 19.9966 14.9401 19.9999 16ZM28.4999 10.5V21.5C28.4999 23.3565 27.7624 25.137 26.4496 26.4497C25.1369 27.7625 23.3564 28.5 21.4999 28.5H10.4999C8.64336 28.5 6.86288 27.7625 5.55013 26.4497C4.23738 25.137 3.49988 23.3565 3.49988 21.5V10.5C3.49988 8.64348 4.23738 6.86301 5.55013 5.55025C6.86288 4.2375 8.64336 3.5 10.4999 3.5H21.4999C23.3564 3.5 25.1369 4.2375 26.4496 5.55025C27.7624 6.86301 28.4999 8.64348 28.4999 10.5ZM21.9999 16C21.9999 14.8133 21.648 13.6533 20.9887 12.6666C20.3294 11.6799 19.3923 10.9108 18.296 10.4567C17.1996 10.0026 15.9932 9.88378 14.8293 10.1153C13.6655 10.3468 12.5964 10.9182 11.7572 11.7574C10.9181 12.5965 10.3467 13.6656 10.1152 14.8295C9.88366 15.9933 10.0025 17.1997 10.4566 18.2961C10.9107 19.3925 11.6798 20.3295 12.6665 20.9888C13.6532 21.6481 14.8132 22 15.9999 22C17.5912 22 19.1173 21.3679 20.2425 20.2426C21.3677 19.1174 21.9999 17.5913 21.9999 16ZM23.9999 9.5C23.9999 9.20333 23.9119 8.91332 23.7471 8.66665C23.5823 8.41997 23.348 8.22771 23.0739 8.11418C22.7998 8.00065 22.4982 7.97094 22.2072 8.02882C21.9163 8.0867 21.649 8.22956 21.4392 8.43934C21.2294 8.64912 21.0866 8.91639 21.0287 9.20736C20.9708 9.49834 21.0005 9.79994 21.1141 10.074C21.2276 10.3481 21.4198 10.5824 21.6665 10.7472C21.9132 10.912 22.2032 11 22.4999 11C22.8977 11 23.2792 10.842 23.5605 10.5607C23.8418 10.2794 23.9999 9.89782 23.9999 9.5Z" fill="white"/>
</svg>
