<svg width="32" height="32" viewBox="0 0 32 32" fill="none" xmlns="http://www.w3.org/2000/svg">
<path d="M14.3329 17.3867C14.3329 16.6267 13.7062 16 12.9462 16C12.1862 16 11.5596 16.6267 11.5596 17.3867C11.5596 17.7544 11.7057 18.1071 11.9657 18.3672C12.2258 18.6272 12.5785 18.7733 12.9462 18.7733C13.314 18.7733 13.6667 18.6272 13.9268 18.3672C14.1868 18.1071 14.3329 17.7544 14.3329 17.3867ZM18.7862 20.5467C18.1862 21.1467 16.9062 21.36 15.9996 21.36C15.0929 21.36 13.8129 21.1467 13.2129 20.5467C13.1805 20.5119 13.1412 20.4843 13.0977 20.4653C13.0541 20.4464 13.0071 20.4366 12.9596 20.4366C12.9121 20.4366 12.8651 20.4464 12.8215 20.4653C12.7779 20.4843 12.7387 20.5119 12.7062 20.5467C12.6715 20.5791 12.6438 20.6183 12.6249 20.6619C12.606 20.7055 12.5962 20.7525 12.5962 20.8C12.5962 20.8475 12.606 20.8945 12.6249 20.9381C12.6438 20.9817 12.6715 21.0209 12.7062 21.0533C13.6529 22 15.4662 22.08 15.9996 22.08C16.5329 22.08 18.3462 22 19.2929 21.0533C19.3276 21.0209 19.3553 20.9817 19.3742 20.9381C19.3932 20.8945 19.4029 20.8475 19.4029 20.8C19.4029 20.7525 19.3932 20.7055 19.3742 20.6619C19.3553 20.6183 19.3276 20.5791 19.2929 20.5467C19.1596 20.4133 18.9329 20.4133 18.7862 20.5467ZM19.0529 16C18.2929 16 17.6662 16.6267 17.6662 17.3867C17.6662 18.1467 18.2929 18.7733 19.0529 18.7733C19.8129 18.7733 20.4396 18.1467 20.4396 17.3867C20.4396 16.6267 19.8262 16 19.0529 16Z" fill="white"/>
<path d="M15.9993 2.66675C8.63935 2.66675 2.66602 8.64008 2.66602 16.0001C2.66602 23.3601 8.63935 29.3334 15.9993 29.3334C23.3593 29.3334 29.3327 23.3601 29.3327 16.0001C29.3327 8.64008 23.3593 2.66675 15.9993 2.66675ZM23.7327 17.7734C23.7593 17.9601 23.7727 18.1601 23.7727 18.3601C23.7727 21.3467 20.2927 23.7734 15.9993 23.7734C11.706 23.7734 8.22602 21.3467 8.22602 18.3601C8.22602 18.1601 8.23935 17.9601 8.26602 17.7734C7.58602 17.4667 7.11935 16.7867 7.11935 16.0001C7.11737 15.6177 7.22842 15.2433 7.43854 14.9239C7.64866 14.6045 7.94849 14.3543 8.30036 14.2047C8.65223 14.0551 9.04045 14.0128 9.41627 14.0832C9.79209 14.1535 10.1387 14.3334 10.4127 14.6001C11.7593 13.6267 13.626 13.0134 15.6927 12.9467L16.6793 8.29341C16.6927 8.20008 16.746 8.12008 16.826 8.08008C16.906 8.02675 16.9993 8.01341 17.0927 8.02675L20.3193 8.72008C20.4288 8.49819 20.5956 8.30961 20.8025 8.17392C21.0094 8.03822 21.2488 7.96035 21.4959 7.94838C21.743 7.9364 21.9888 7.99077 22.2079 8.10583C22.4269 8.22089 22.6112 8.39245 22.7415 8.60273C22.8719 8.81301 22.9436 9.05433 22.9493 9.30168C22.955 9.54903 22.8943 9.79339 22.7737 10.0094C22.6531 10.2254 22.4769 10.4052 22.2634 10.5302C22.0498 10.6552 21.8068 10.7207 21.5593 10.7201C20.8127 10.7201 20.2127 10.1334 20.1727 9.40008L17.2793 8.78675L16.3993 12.9467C18.4393 13.0134 20.266 13.6401 21.5993 14.6001C21.8037 14.4049 22.0483 14.2567 22.316 14.1659C22.5836 14.0752 22.8679 14.044 23.1488 14.0745C23.4298 14.105 23.7007 14.1966 23.9426 14.3428C24.1844 14.489 24.3915 14.6862 24.5491 14.9208C24.7068 15.1553 24.8113 15.4215 24.8554 15.7007C24.8995 15.9798 24.882 16.2652 24.8042 16.537C24.7265 16.8087 24.5903 17.0601 24.4052 17.2737C24.2201 17.4873 23.9906 17.6578 23.7327 17.7734Z" fill="white"/>
</svg>
