<svg width="32" height="32" viewBox="0 0 32 32" fill="none" xmlns="http://www.w3.org/2000/svg">
<path d="M16.0003 2.66675C17.7513 2.66675 19.4851 3.01162 21.1028 3.68169C22.7204 4.35175 24.1903 5.33388 25.4284 6.57199C26.6665 7.81011 27.6487 9.27996 28.3187 10.8976C28.9888 12.5153 29.3337 14.2491 29.3337 16.0001C29.3337 19.5363 27.9289 22.9277 25.4284 25.4282C22.9279 27.9287 19.5365 29.3334 16.0003 29.3334C9.86699 29.3334 4.73366 25.2267 3.14699 19.6401L8.25366 21.7467C8.42933 22.6005 8.89387 23.3676 9.56902 23.9189C10.2442 24.4702 11.0887 24.772 11.9603 24.7734C14.0403 24.7734 15.7337 23.0801 15.7337 21.0001V20.8267L20.267 17.5867H20.3737C23.147 17.5867 25.4003 15.3334 25.4003 12.5601C25.4003 9.78675 23.147 7.53341 20.3737 7.53341C17.6003 7.53341 15.3337 9.78675 15.3337 12.5601V12.6267L12.1737 17.2401L11.9603 17.2267C11.1737 17.2267 10.4403 17.4667 9.84033 17.8801L2.66699 14.9334C3.24033 8.06675 8.97366 2.66675 16.0003 2.66675ZM11.0403 22.8934C12.107 23.3334 13.3337 22.8401 13.7737 21.7734C14.2137 20.7067 13.707 19.4934 12.667 19.0534L10.9603 18.3467C11.6137 18.1067 12.347 18.0934 13.0403 18.3867C13.747 18.6667 14.2937 19.2134 14.5737 19.9201C14.867 20.6134 14.867 21.3867 14.5737 22.0801C14.0003 23.5201 12.307 24.2134 10.867 23.6134C10.2003 23.3334 9.69366 22.8267 9.41366 22.2267L11.0403 22.8934ZM23.7337 12.5601C23.7337 14.4134 22.227 15.9201 20.3737 15.9201C19.4848 15.9166 18.6336 15.561 18.0064 14.9313C17.3792 14.3015 17.027 13.4489 17.027 12.5601C17.0252 12.1201 17.1106 11.6841 17.2781 11.2773C17.4457 10.8705 17.6922 10.5008 18.0033 10.1897C18.3144 9.87858 18.684 9.63213 19.0909 9.46457C19.4977 9.29701 19.9337 9.21165 20.3737 9.21341C21.2625 9.21341 22.1151 9.56558 22.7448 10.1928C23.3746 10.8201 23.7301 11.6713 23.7337 12.5601ZM17.867 12.5601C17.867 13.9467 18.987 15.0801 20.387 15.0801C21.7737 15.0801 22.8937 13.9467 22.8937 12.5601C22.8937 11.1734 21.7737 10.0401 20.387 10.0401C18.987 10.0401 17.867 11.1734 17.867 12.5601Z" fill="white"/>
</svg>
