<svg width="52" height="52" viewBox="0 0 52 52" fill="none" xmlns="http://www.w3.org/2000/svg">
<g filter="url(#filter0_d_1_97)">
<path d="M26.0003 12.6666C27.7513 12.6666 29.4851 13.0115 31.1028 13.6816C32.7204 14.3516 34.1903 15.3338 35.4284 16.5719C36.6665 17.81 37.6487 19.2798 38.3187 20.8975C38.9888 22.5152 39.3337 24.249 39.3337 26C39.3337 29.5362 37.9289 32.9276 35.4284 35.428C32.9279 37.9285 29.5365 39.3333 26.0003 39.3333C19.867 39.3333 14.7337 35.2266 13.147 29.64L18.2537 31.7466C18.4293 32.6004 18.8939 33.3675 19.569 33.9188C20.2442 34.4701 21.0887 34.7719 21.9603 34.7733C24.0403 34.7733 25.7337 33.08 25.7337 31V30.8266L30.267 27.5866H30.3737C33.147 27.5866 35.4003 25.3333 35.4003 22.56C35.4003 19.7866 33.147 17.5333 30.3737 17.5333C27.6003 17.5333 25.3337 19.7866 25.3337 22.56V22.6266L22.1737 27.24L21.9603 27.2266C21.1737 27.2266 20.4403 27.4666 19.8403 27.88L12.667 24.9333C13.2403 18.0666 18.9737 12.6666 26.0003 12.6666ZM21.0403 32.8933C22.107 33.3333 23.3337 32.84 23.7737 31.7733C24.2137 30.7066 23.707 29.4933 22.667 29.0533L20.9603 28.3466C21.6137 28.1066 22.347 28.0933 23.0403 28.3866C23.747 28.6666 24.2937 29.2133 24.5737 29.92C24.867 30.6133 24.867 31.3866 24.5737 32.08C24.0003 33.52 22.307 34.2133 20.867 33.6133C20.2003 33.3333 19.6937 32.8266 19.4137 32.2266L21.0403 32.8933ZM33.7337 22.56C33.7337 24.4133 32.227 25.92 30.3737 25.92C29.4848 25.9164 28.6336 25.5609 28.0064 24.9311C27.3792 24.3014 27.027 23.4488 27.027 22.56C27.0252 22.12 27.1106 21.684 27.2781 21.2772C27.4457 20.8703 27.6922 20.5007 28.0033 20.1896C28.3144 19.8785 28.684 19.632 29.0909 19.4645C29.4977 19.2969 29.9337 19.2115 30.3737 19.2133C31.2625 19.2133 32.1151 19.5655 32.7448 20.1927C33.3746 20.8199 33.7301 21.6711 33.7337 22.56ZM27.867 22.56C27.867 23.9466 28.987 25.08 30.387 25.08C31.7737 25.08 32.8937 23.9466 32.8937 22.56C32.8937 21.1733 31.7737 20.04 30.387 20.04C28.987 20.04 27.867 21.1733 27.867 22.56Z" fill="white"/>
</g>
<defs>
<filter id="filter0_d_1_97" x="0.666992" y="0.666626" width="50.6667" height="50.6667" filterUnits="userSpaceOnUse" color-interpolation-filters="sRGB">
<feFlood flood-opacity="0" result="BackgroundImageFix"/>
<feColorMatrix in="SourceAlpha" type="matrix" values="0 0 0 0 0 0 0 0 0 0 0 0 0 0 0 0 0 0 127 0" result="hardAlpha"/>
<feOffset/>
<feGaussianBlur stdDeviation="6"/>
<feComposite in2="hardAlpha" operator="out"/>
<feColorMatrix type="matrix" values="0 0 0 0 0.333333 0 0 0 0 0.8 0 0 0 0 1 0 0 0 0.5 0"/>
<feBlend mode="normal" in2="BackgroundImageFix" result="effect1_dropShadow_1_97"/>
<feBlend mode="normal" in="SourceGraphic" in2="effect1_dropShadow_1_97" result="shape"/>
</filter>
</defs>
</svg>
