<svg width="32" height="32" viewBox="0 0 32 32" fill="none" xmlns="http://www.w3.org/2000/svg">
<path d="M21.2474 7.07333C20.2448 5.94612 19.6922 4.49851 19.6926 3H15.1601V20.9111C15.1251 21.8804 14.7096 22.7985 14.0009 23.472C13.2923 24.1456 12.3459 24.5221 11.361 24.5222C9.27806 24.5222 7.54719 22.8467 7.54719 20.7667C7.54719 18.2822 9.98214 16.4189 12.4904 17.1844V12.62C7.42985 11.9556 3 15.8267 3 20.7667C3 25.5767 7.04847 29 11.3463 29C15.9522 29 19.6926 25.3167 19.6926 20.7667V11.6811C21.5305 12.9809 23.7372 13.6783 26 13.6744V9.21111C26 9.21111 23.2423 9.34111 21.2474 7.07333Z" fill="white"/>
</svg>
