<svg width="28" height="20" viewBox="0 0 28 20" fill="none" xmlns="http://www.w3.org/2000/svg">
<path d="M11.3337 14L18.2537 10L11.3337 6.00002V14ZM26.747 3.56002C26.9203 4.18669 27.0403 5.02669 27.1203 6.09335C27.2137 7.16002 27.2537 8.08002 27.2537 8.88002L27.3337 10C27.3337 12.92 27.1203 15.0667 26.747 16.44C26.4137 17.64 25.6403 18.4134 24.4403 18.7467C23.8137 18.92 22.667 19.04 20.907 19.12C19.1737 19.2134 17.587 19.2534 16.1203 19.2534L14.0003 19.3334C8.41366 19.3334 4.93366 19.12 3.56033 18.7467C2.36033 18.4134 1.58699 17.64 1.25366 16.44C1.08033 15.8134 0.960326 14.9734 0.880326 13.9067C0.786992 12.84 0.746992 11.92 0.746992 11.12L0.666992 10C0.666992 7.08002 0.880326 4.93335 1.25366 3.56002C1.58699 2.36002 2.36033 1.58669 3.56033 1.25335C4.18699 1.08002 5.33366 0.96002 7.09366 0.88002C8.82699 0.786687 10.4137 0.746687 11.8803 0.746687L14.0003 0.666687C19.587 0.666687 23.067 0.88002 24.4403 1.25335C25.6403 1.58669 26.4137 2.36002 26.747 3.56002Z" fill="white"/>
</svg>
